<?xml version="1.0" standalone="no"?>
<!DOCTYPE svg PUBLIC "-//W3C//DTD SVG 20010904//EN"
 "http://www.w3.org/TR/2001/REC-SVG-20010904/DTD/svg10.dtd">
<svg version="1.0" xmlns="http://www.w3.org/2000/svg"
 width="963.000000pt" height="960.000000pt" viewBox="0 0 963.000000 960.000000"
 preserveAspectRatio="xMidYMid meet">
<metadata>
Created by potrace 1.16, written by Peter Selinger 2001-2019
</metadata>
<g transform="translate(0.000000,960.000000) scale(0.100000,-0.100000)"
fill="#0050aa" stroke="none">
<path d="M4360 9584 c-801 -75 -1563 -346 -2230 -792 -594 -398 -1082 -913
-1465 -1547 -84 -138 -268 -512 -329 -667 -157 -399 -258 -806 -313 -1258 -22
-183 -25 -807 -5 -995 109 -1011 490 -1893 1150 -2670 123 -143 396 -412 551
-540 782 -648 1682 -1017 2691 -1105 148 -13 631 -13 780 0 903 78 1717 381
2442 909 367 266 754 650 1020 1009 547 740 857 1562 938 2487 15 171 15 593
1 770 -75 885 -378 1708 -892 2421 -592 819 -1422 1431 -2374 1749 -331 111
-630 177 -999 221 -188 23 -761 28 -966 8z m730 -484 c561 -42 1060 -172 1562
-408 330 -156 727 -417 997 -659 l45 -40 -85 -6 c-261 -18 -483 -175 -600
-422 -50 -108 -68 -180 -75 -305 -15 -267 65 -482 360 -960 297 -483 411 -836
410 -1275 0 -152 -5 -215 -23 -314 -29 -166 -94 -414 -182 -701 -39 -129 -178
-589 -308 -1022 l-236 -786 -164 486 c-491 1465 -1250 3724 -1334 3968 l-55
161 97 7 c274 19 425 38 462 57 59 29 92 86 92 157 0 33 -7 70 -16 88 -20 39
-70 82 -105 91 -26 6 -233 -3 -612 -29 -283 -19 -967 -16 -1295 7 -154 10
-339 19 -412 19 l-132 1 -40 -39 c-91 -89 -74 -249 32 -296 39 -17 201 -38
438 -56 l85 -6 66 -182 c37 -99 134 -365 216 -591 83 -225 202 -553 266 -728
64 -174 116 -327 116 -339 0 -23 -917 -2778 -929 -2791 -4 -4 -19 27 -33 70
-34 102 -344 1024 -808 2403 -648 1928 -723 2151 -719 2154 2 2 99 11 214 20
295 24 328 30 375 75 86 82 73 220 -29 288 -41 28 -78 29 -386 8 -482 -32
-1135 -48 -1135 -27 1 12 140 203 237 323 677 843 1658 1405 2728 1563 85 12
211 25 390 39 97 8 402 6 525 -3z m3601 -2446 c265 -557 399 -1120 416 -1744
38 -1409 -608 -2728 -1752 -3580 -126 -94 -359 -243 -363 -232 -1 4 33 111 77
238 119 344 602 1740 863 2494 126 366 268 773 315 905 248 698 299 884 349
1265 20 146 26 604 11 750 -7 71 -7 74 9 52 9 -13 43 -79 75 -148z m-7661
-584 c167 -458 316 -866 555 -1520 186 -510 292 -800 498 -1365 96 -264 228
-624 292 -800 513 -1403 528 -1445 523 -1451 -6 -5 -283 149 -403 226 -927
590 -1592 1501 -1865 2557 -203 781 -183 1590 56 2362 58 184 164 456 174 444
4 -4 81 -208 170 -453z m3986 -2045 c64 -176 183 -504 266 -730 82 -225 201
-552 264 -725 64 -173 160 -436 214 -585 54 -148 167 -457 250 -685 83 -228
164 -449 180 -490 16 -41 26 -78 22 -82 -10 -10 -249 -82 -373 -112 -391 -96
-731 -133 -1134 -123 -257 6 -424 22 -655 63 -131 24 -447 97 -456 107 -2 2 7
35 20 73 13 38 71 206 129 374 58 168 203 589 322 935 119 347 263 765 320
930 57 165 175 509 263 765 88 256 175 509 194 563 32 94 33 96 45 70 7 -16
65 -172 129 -348z"/>
</g>
</svg>
